<?xml version="1.0" encoding="UTF-8"?>
<svg id="Camada_1" data-name="Camada 1" xmlns="http://www.w3.org/2000/svg" viewBox="0 0 755.81 229.07">
  <defs>
    <style>
      .cls-1, .cls-2 {
        fill: #1064ab;
      }

      .cls-3 {
        letter-spacing: -.02em;
      }

      .cls-4 {
        letter-spacing: .02em;
      }

      .cls-2 {
        font-family: Conthrax-SemiBold, Conthrax;
        font-size: 107.56px;
        font-weight: 600;
      }
    </style>
  </defs>
  <path class="cls-1" d="M133.54,76.76h44.12c-.65-6.19-2.49-9.23-6.3-12.69l-.13-.1-.21-.18c-5.05-4.3-9.83-6.19-17.49-6.31-1.47,0-3.1-.15-4.71-.53h-45.56c-5.77.05-13.24-1.56-18.97-7.27-5.71-5.75-7.32-13.21-7.27-18.96,0-.19,0-.36,0-.52h-18.12c-13.28,0-24.03,10.73-24.03,23.98v104.84c0,13.26,10.75,23.99,24.03,23.99h4.86c-3.88-9.26-5.91-19.22-5.85-29.48-.16-20.46,7.62-39.7,22.09-53.92,14.25-14.45,33.22-22.55,53.53-22.86M130.7,129.5c-5.25.69-9.11,2.71-13.57,6.98-4.97,5.19-6.82,9.61-6.98,17.05.14,6.74,1.92,11.55,7,17.3,4.65,4.1,8.67,6.04,13.61,6.72h17.46c7.56-.85,13.28-3.76,19.4-9.67,6.76-6.96,9.76-13.87,10.21-24.06v-14.32h-47.12Z"/>
  <text class="cls-2" transform="translate(197.12 153.38)"><tspan x="0" y="0">a</tspan><tspan class="cls-3" x="84.87" y="0">cc</tspan><tspan x="237.82" y="0">e</tspan><tspan class="cls-4" x="322.69" y="0">r</tspan><tspan x="390.89" y="0">te</tspan></text>
</svg>